<svg id="Layer_1" data-name="Layer 1" xmlns="http://www.w3.org/2000/svg" viewBox="0 0 60.84 42.27">
    <defs>
        <style>
            .cls-1{fill:none;stroke:#fff;stroke-miterlimit:10}
        </style>
    </defs>
    <title>
        artist-icon
    </title>
    <path class="cls-1" d="M53.88,45.73c-5.69-3-13.21-5.16-20.11-3a15.16,15.16,0,0,1,7.52-.43c3.77.85,6.27,3.81,5,6.35-1.88,2.11-6.27,3-9.41,3.8a5,5,0,0,0-3.13,7.19,6.18,6.18,0,0,0,3.13,1.27C45.68,60,53.21,56.22,59.48,52c1.88-1.69,2.51-4.23-.63-6.77,6.9,2.54-3.13,6.35-.62,8.46,4.39,4.65,14.42-1.27,17.55-5.07C80.8,42.26,77,34.23,68.89,30c10.66,3,13.79,12.69,8.78,19C70.14,59.18,56.34,74,36.28,68.48,25,65.94,26.87,55.8,30,49c0-1.27-3.77-.85-6.28-.42,4.39-8.88,20.7-9.31,29.78-3Z" transform="translate(-19.66 -28.23)"/>
    <path class="cls-1" d="M30.66,39c10.63-3.11,21.92-1.84,33.21.27,6.27.85,10.66,5.5,6.9,9.73-4.39,4.23-15,9.73-20.7,4.65-1.88-1.69,2.51-3.8,2.51-5.92,0-1.69-1.88-3.38-4.39-3.38,7.53.84,3.14,5.92,2.51,8.88,4.39.42,8.78-1.27,11.92-3,4.39-3,5-8,0-10.15C54.46,36.34,43.8,36.34,34.19,38,32.4,38.5,30.66,39,30.66,39Z" transform="translate(-19.66 -28.23)"/>
    <path class="cls-1" d="M20,47.94c5.62-4,12.51-8.64,21.29-8.21,6.9.42,13.8,3.38,15.68,7.61C58.23,49,55.72,50.72,54.46,52c1.26-1.69,1.88-3.81.63-5.5C52,41.84,42.55,38.88,35,40.57c-5,1.27-9.4,3-12.55,5.3C20.72,47.26,20,47.94,20,47.94Z" transform="translate(-19.66 -28.23)"/>
    <path class="cls-1" d="M40.22,38.64c6.09,1.09,13,1.93,17.38,5.32,5,4.65-5,11-11.92,9.3-4.39-.85,1.26-4.23,0-6.77-1.88-3-8.78-3.8-11.28-1.27-3.77,3.39-7.53,7.19-8.16,11.84,0,3.81,2.51,8,7.53,10.58,18.18,8,31.35-6.35,40.76-14.38-8.78,5.5-15.05,13.53-27.59,16.07-5,.42-10,0-13.8-2.12-5.64-3.38-8.78-9.72-2.51-13.53-1.88,3.81,1.88,8.46,7.53,7.61,7.52-.84,13.17-3.8,20.07-6.76,5-2.54,8.15-8,1.25-10.57,3.76.42,7.53,3.38,5,5.07-6.27,6.34-13.8,12.69-23.83,15.65C28.75,68.06,30,56.22,30,50.3c0-2.54-4.39-.42-6.9-.85-3.76-.84-.63-2.53,1.25-3.8-1.25.42-1.25,1.69-1.88,2.53A11.71,11.71,0,0,0,30,49c-1.89-.42-5.65.85-5.65,0-.63-6.77,13.8-6.77,20.66-9.83C42.23,38.79,40.22,38.64,40.22,38.64Z" transform="translate(-19.66 -28.23)"/>
</svg>
