<svg id="Layer_1" data-name="Layer 1" xmlns="http://www.w3.org/2000/svg" viewBox="0 0 55.52 33.57">
  
    <title>
        contact-icon
    </title>
    <path d="M72.06,59.14c-2.14,4.73,2.79,7.29-2.31,6.29S59.34,41.89,54.49,43.77c-5.44,2.1,2.85,14.26-2.93,15.07-4.43.62-5.67,8.82-8.4,5.29s-1.31-2.33-5-4.85c-4.6-3.16-6.84,7.15-12.07,5.22s-5.39-12.57-3.44-17.79c2.52-6.77,3.43-1.28,6.41-7.86s9.1,1.95,12.57-4.51c2.65-4.93-13.18,6-8.34,8.77S44,34.78,49.4,36.31c4.24,1.2,4,10.7,8.39,10.52S69.51,31,71.86,34.71c3.13,5-8.93,9.5-7,15.06,1.73,4.93,5.84-1.48,10.59.72C77.31,51.35,74.22,54.37,72.06,59.14Z" transform="translate(-21.01 -32.58)" style="fill:none;stroke:WHITE;stroke-miterlimit:10"/>
</svg>
