<svg id="Layer_1" data-name="Layer 1" xmlns="http://www.w3.org/2000/svg" viewBox="0 0 60.3 41">
    <defs>
        <style>
            .cls-1{fill:none;stroke:white;stroke-miterlimit:10}
        </style>
    </defs>
    <title>
        services-icon
    </title>
    <path class="cls-1" d="M20.4,54.49c18.82-3.64,41.09-8.43,58.52,2.07" transform="translate(-19.99 -29.5)"/>
    <path class="cls-1" d="M20.84,51c19.31-2.05,40.65-9.71,58.43,2.27" transform="translate(-19.99 -29.5)"/>
    <path class="cls-1" d="M21.39,47.49c18.76-3.34,41-11,58.13,2.23" transform="translate(-19.99 -29.5)"/>
    <path class="cls-1" d="M22,44c19-3.65,40.39-9.4,57.65,1.81" transform="translate(-19.99 -29.5)"/>
    <path class="cls-1" d="M22.75,40.39c18.33-3.9,39.67-11.56,57,1" transform="translate(-19.99 -29.5)"/>
    <path class="cls-1" d="M23.56,36.7C42,32.66,62.42,24,80,36.43" transform="translate(-19.99 -29.5)"/>
    <path class="cls-1" d="M20.58,69.53c19.57-1.44,38.13,1.43,57.56.11" transform="translate(-19.99 -29.5)"/>
    <path class="cls-1" d="M20.11,58.05c19.11-3.37,39.52-4.32,58.44,1.69" transform="translate(-19.99 -29.5)"/>
    <path class="cls-1" d="M20,61.71c19.22-.32,38.71-4.15,58.24,1.21" transform="translate(-19.99 -29.5)"/>
    <path class="cls-1" d="M20.14,65.52c19.08-1.26,38.57.66,58,.67" transform="translate(-19.99 -29.5)"/>
</svg>
